<?xml version="1.0" encoding="UTF-8" standalone="no"?>
<!DOCTYPE svg PUBLIC "-//W3C//DTD SVG 1.0//EN" "http://www.w3.org/TR/2001/REC-SVG-20010904/DTD/svg10.dtd">
<!-- Generated by Microsoft Visio 11.0, SVG Export, v1.0 Nitrokey HSM Block Diagram.svg Page-1 -->
<svg xmlns="http://www.w3.org/2000/svg" xmlns:xlink="http://www.w3.org/1999/xlink" xmlns:ev="http://www.w3.org/2001/xml-events"
		xmlns:v="http://schemas.microsoft.com/visio/2003/SVGExtensions/" width="7.04839in" height="3.03125in"
		viewBox="0 0 507.484 218.25" xml:space="preserve" color-interpolation-filters="sRGB" class="st12">
	<v:documentProperties v:langID="1033" v:metric="true" v:viewMarkup="false"/>

	<style type="text/css">
	<![CDATA[
		.st1 {fill:#c6d8f0;stroke:#164326;stroke-linecap:round;stroke-linejoin:round;stroke-width:0.24}
		.st2 {fill:#d3d3ab;stroke:#164326;stroke-linecap:round;stroke-linejoin:round;stroke-width:0.24}
		.st3 {fill:#164326;font-family:Calibri;font-size:0.666664em}
		.st4 {font-size:1em}
		.st5 {fill:none;stroke:none;stroke-linecap:round;stroke-linejoin:round;stroke-width:0.75}
		.st6 {fill:#164326;font-family:Calibri;font-size:0.833336em}
		.st7 {fill:#eaeff5;stroke:#164326;stroke-linecap:round;stroke-linejoin:round;stroke-width:0.24}
		.st8 {fill:#8db1e2}
		.st9 {stroke:none;stroke-linecap:round;stroke-linejoin:round;stroke-width:0.75}
		.st10 {stroke:#164326;stroke-linecap:round;stroke-linejoin:round;stroke-width:0.24}
		.st11 {fill:#8db1e2;stroke:#8db1e2;stroke-linecap:round;stroke-linejoin:round;stroke-width:0.24;visibility:hidden}
		.st12 {fill:none;fill-rule:evenodd;font-size:12px;overflow:visible;stroke-linecap:square;stroke-miterlimit:3}
	]]>
	</style>

	<g v:mID="0" v:index="1" v:groupContext="foregroundPage">
		<title>Page-1</title>
		<v:pageProperties v:drawingScale="0.0393701" v:pageScale="0.0393701" v:drawingUnits="24" v:shadowOffsetX="8.50394"
				v:shadowOffsetY="-8.50394"/>
		<g id="shape38-1" v:mID="38" v:groupContext="shape" transform="translate(0.75,-0.24)">
			<title>Box.38</title>
			<v:userDefs>
				<v:ud v:nameU="visVersion" v:val="VT0(14):26"/>
			</v:userDefs>
			<rect x="0" y="2.81677" width="490.394" height="215.433" class="st1"/>
		</g>
		<g id="shape36-3" v:mID="36" v:groupContext="shape" transform="translate(9.25394,-8.74394)">
			<title>Box.36</title>
			<v:userDefs>
				<v:ud v:nameU="visVersion" v:val="VT0(14):26"/>
			</v:userDefs>
			<rect x="0" y="25.4939" width="473.386" height="192.756" class="st2"/>
		</g>
		<g id="shape1-5" v:mID="1" v:groupContext="shape" transform="translate(17.7579,-17.2479)">
			<title>Box</title>
			<v:userDefs>
				<v:ud v:nameU="visVersion" v:val="VT0(14):26"/>
			</v:userDefs>
			<rect x="0" y="51.0057" width="456.378" height="167.244" class="st1"/>
		</g>
		<g id="shape2-7" v:mID="2" v:groupContext="shape" transform="translate(33.3484,-45.24)">
			<title>Box.2</title>
			<desc>Nitrokey HSM</desc>
			<v:userDefs>
				<v:ud v:nameU="visVersion" v:val="VT0(14):26"/>
			</v:userDefs>
			<v:textBlock v:margins="rect(4,4,4,4)" v:tabSpace="42.5197"/>
			<v:textRect cx="26.9291" cy="198.053" width="53.86" height="40.3937"/>
			<rect x="0" y="177.856" width="53.8583" height="40.3937" class="st2"/>
			<text x="12.97" y="195.65" class="st3" v:langID="7177"><v:paragraph v:horizAlign="1"/><v:tabList/>Nitrokey<v:lf/><tspan
						x="19.18" dy="1.2em" class="st4">HSM</tspan></text>		</g>
		<g id="shape3-11" v:mID="3" v:groupContext="shape" transform="translate(95.7106,-25.7518)">
			<title>Box.3</title>
			<v:userDefs>
				<v:ud v:nameU="visVersion" v:val="VT0(14):26"/>
			</v:userDefs>
			<rect x="0" y="73.6829" width="368.504" height="144.567" class="st2"/>
		</g>
		<g id="shape4-13" v:mID="4" v:groupContext="shape" transform="translate(102.797,-34.2557)">
			<title>Box.4</title>
			<v:userDefs>
				<v:ud v:nameU="visVersion" v:val="VT0(14):26"/>
			</v:userDefs>
			<rect x="0" y="102.029" width="351.496" height="116.22" class="st1"/>
		</g>
		<g id="shape5-15" v:mID="5" v:groupContext="shape" transform="translate(17.7579,-168.492)">
			<title>Sheet.5</title>
			<desc>Physical Server</desc>
			<v:textBlock v:margins="rect(4,4,4,4)" v:tabSpace="42.5197"/>
			<v:textRect cx="52" cy="210.25" width="104" height="16"/>
			<rect x="0" y="202.25" width="104" height="16" class="st5"/>
			<text x="4" y="213.25" class="st6" v:langID="7177"><v:paragraph/><v:tabList/>Physical Server</text>		</g>
		<g id="shape6-18" v:mID="6" v:groupContext="shape" transform="translate(95.7106,-154.319)">
			<title>Sheet.6</title>
			<desc>Vmware ESXi</desc>
			<v:textBlock v:margins="rect(4,4,4,4)" v:tabSpace="42.5197"/>
			<v:textRect cx="52" cy="210.25" width="104" height="16"/>
			<rect x="0" y="202.25" width="104" height="16" class="st5"/>
			<text x="4" y="213.25" class="st6" v:langID="7177"><v:paragraph/><v:tabList/>Vmware ESXi</text>		</g>
		<g id="shape7-21" v:mID="7" v:groupContext="shape" transform="translate(102.797,-134.476)">
			<title>Sheet.7</title>
			<desc>Aggregator VM</desc>
			<v:textBlock v:margins="rect(4,4,4,4)" v:tabSpace="42.5197"/>
			<v:textRect cx="52" cy="210.25" width="104" height="16"/>
			<rect x="0" y="202.25" width="104" height="16" class="st5"/>
			<text x="4" y="213.25" class="st6" v:langID="7177"><v:paragraph/><v:tabList/>Aggregator VM</text>		</g>
		<g id="shape10-24" v:mID="10" v:groupContext="shape" transform="translate(372.089,-45.5943)">
			<title>Box.10</title>
			<desc>Apache / PHPH (frontend)</desc>
			<v:userDefs>
				<v:ud v:nameU="visVersion" v:val="VT0(14):26"/>
			</v:userDefs>
			<v:textBlock v:margins="rect(4,4,4,4)" v:tabSpace="42.5197"/>
			<v:textRect cx="36.8504" cy="175.73" width="73.71" height="85.0394"/>
			<rect x="0" y="133.21" width="73.7008" height="85.0394" class="st7"/>
			<text x="12.26" y="173.33" class="st3" v:langID="7177"><v:paragraph v:horizAlign="1"/><v:tabList/>Apache / PHPH<v:newlineChar/><tspan
						x="20.07" dy="1.2em" class="st4">(</tspan>frontend)</text>		</g>
		<g id="group19-28" transform="translate(301.222,-73.9408)" v:mID="19" v:groupContext="group">
			<v:userDefs>
				<v:ud v:nameU="visVersion" v:val="VT0(14):26"/>
			</v:userDefs>
			<title>2-D single.19</title>
			<desc>Signed XML</desc>
			<g id="shape20-29" v:mID="20" v:groupContext="shape">
				<title>Sheet.20</title>
				<path d="M0 211.16 L43.94 211.16 L43.94 218.25 L51.02 204.08 L43.94 189.9 L43.94 196.99 L0 196.99 L0 211.16 Z"
						class="st8"/>
				<path d="M0 211.16 L43.94 211.16 L43.94 218.25 L51.02 204.08 L43.94 189.9 L43.94 196.99 L0 196.99" class="st9"/>
			</g>
			<g id="shape21-32" v:mID="21" v:groupContext="shape">
				<title>Sheet.21</title>
				<path d="M0 211.16 L43.94 211.16 L43.94 218.25 L51.02 204.08 L43.94 189.9 L43.94 196.99 L0 196.99 L0 211.16"
						class="st10"/>
			</g>
			<g id="shape22-35" v:mID="22" v:groupContext="shape" transform="translate(-0.410079,-7.32661)">
				<title>Sheet.22</title>
				<rect x="0" y="204.557" width="0.48" height="13.6932" class="st11"/>
			</g>
			<g id="shape19-37" v:mID="19" v:groupContext="groupContent">
				<v:textBlock v:margins="rect(4,4,4,4)" v:tabSpace="42.5197"/>
				<v:textRect cx="25.5118" cy="204.077" width="51.03" height="28.3465"/>
				<text x="6.6" y="206.48" class="st3" v:langID="7177"><v:paragraph v:horizAlign="1"/><v:tabList/>Signed XML</text>			</g>
		</g>
		<g id="shape8-39" v:mID="8" v:groupContext="shape" transform="translate(289.884,-45.5943)">
			<title>Box.8</title>
			<desc>PHPH (backend)</desc>
			<v:userDefs>
				<v:ud v:nameU="visVersion" v:val="VT0(14):26"/>
			</v:userDefs>
			<v:textBlock v:margins="rect(4,4,4,4)" v:tabSpace="42.5197"/>
			<v:textRect cx="36.8504" cy="175.73" width="73.71" height="85.0394"/>
			<rect x="0" y="133.21" width="73.7008" height="85.0394" class="st7"/>
			<text x="27.73" y="173.33" class="st3" v:langID="7177"><v:paragraph v:horizAlign="1"/><v:tabList/>PHPH<v:newlineChar/><tspan
						x="20.7" dy="1.2em" class="st4">(</tspan>backend)</text>		</g>
		<g id="shape9-43" v:mID="9" v:groupContext="shape" transform="translate(202.01,-45.5943)">
			<title>Box.9</title>
			<desc>goeleven</desc>
			<v:userDefs>
				<v:ud v:nameU="visVersion" v:val="VT0(14):26"/>
			</v:userDefs>
			<v:textBlock v:margins="rect(4,4,4,4)" v:tabSpace="42.5197"/>
			<v:textRect cx="36.8504" cy="175.73" width="73.71" height="85.0394"/>
			<rect x="0" y="133.21" width="73.7008" height="85.0394" class="st7"/>
			<text x="22.06" y="178.13" class="st3" v:langID="7177"><v:paragraph v:horizAlign="1"/><v:tabList/>goeleven</text>		</g>
		<g id="shape27-46" v:mID="27" v:groupContext="shape" transform="translate(114.136,-45.5943)">
			<title>Box.27</title>
			<desc>OpenSC</desc>
			<v:userDefs>
				<v:ud v:nameU="visVersion" v:val="VT0(14):26"/>
			</v:userDefs>
			<v:textBlock v:margins="rect(4,4,4,4)" v:tabSpace="42.5197"/>
			<v:textRect cx="36.8504" cy="175.73" width="73.71" height="85.0394"/>
			<rect x="0" y="133.21" width="73.7008" height="85.0394" class="st7"/>
			<text x="24.04" y="178.13" class="st3" v:langID="7177"><v:paragraph v:horizAlign="1"/><v:tabList/>OpenSC</text>		</g>
		<g id="group28-49" transform="translate(350.829,-45.5943)" v:mID="28" v:groupContext="group">
			<v:userDefs>
				<v:ud v:nameU="visVersion" v:val="VT0(14):26"/>
			</v:userDefs>
			<title>2-D single.28</title>
			<desc>Signed XML</desc>
			<g id="shape29-50" v:mID="29" v:groupContext="shape">
				<title>Sheet.29</title>
				<path d="M0 208.33 L32.6 208.33 L32.6 218.25 L42.52 198.41 L32.6 178.56 L32.6 188.49 L0 188.49 L0 208.33 Z"
						class="st8"/>
				<path d="M0 208.33 L32.6 208.33 L32.6 218.25 L42.52 198.41 L32.6 178.56 L32.6 188.49 L0 188.49" class="st9"/>
			</g>
			<g id="shape30-53" v:mID="30" v:groupContext="shape">
				<title>Sheet.30</title>
				<path d="M0 208.33 L32.6 208.33 L32.6 218.25 L42.52 198.41 L32.6 178.56 L32.6 188.49 L0 188.49 L0 208.33"
						class="st10"/>
			</g>
			<g id="shape31-56" v:mID="31" v:groupContext="shape" transform="translate(-0.381732,-10.1613)">
				<title>Sheet.31</title>
				<rect x="0" y="198.887" width="0.48" height="19.3625" class="st11"/>
			</g>
			<g id="shape28-58" v:mID="28" v:groupContext="groupContent">
				<v:textBlock v:margins="rect(4,4,4,4)" v:tabSpace="42.5197"/>
				<v:textRect cx="21.2598" cy="198.407" width="42.52" height="39.685"/>
				<text x="10.43" y="196.01" class="st3" v:langID="7177"><v:paragraph v:horizAlign="1"/><v:tabList/>Signed <tspan
							x="14.08" dy="1.2em" class="st4">XML</tspan></text>			</g>
		</g>
		<g id="group11-61" transform="translate(265.789,-45.5943)" v:mID="11" v:groupContext="group">
			<v:userDefs>
				<v:ud v:nameU="visVersion" v:val="VT0(14):26"/>
			</v:userDefs>
			<title>2-D single.11</title>
			<desc>REST API</desc>
			<g id="shape12-62" v:mID="12" v:groupContext="shape">
				<title>Sheet.12</title>
				<path d="M0 208.33 L32.6 208.33 L32.6 218.25 L42.52 198.41 L32.6 178.56 L32.6 188.49 L0 188.49 L0 208.33 Z"
						class="st8"/>
				<path d="M0 208.33 L32.6 208.33 L32.6 218.25 L42.52 198.41 L32.6 178.56 L32.6 188.49 L0 188.49" class="st9"/>
			</g>
			<g id="shape13-65" v:mID="13" v:groupContext="shape">
				<title>Sheet.13</title>
				<path d="M0 208.33 L32.6 208.33 L32.6 218.25 L42.52 198.41 L32.6 178.56 L32.6 188.49 L0 188.49 L0 208.33"
						class="st10"/>
			</g>
			<g id="shape14-68" v:mID="14" v:groupContext="shape" transform="translate(-0.381732,-10.1613)">
				<title>Sheet.14</title>
				<rect x="0" y="198.887" width="0.48" height="19.3625" class="st11"/>
			</g>
			<g id="shape11-70" v:mID="11" v:groupContext="groupContent">
				<v:textBlock v:margins="rect(4,4,4,4)" v:tabSpace="42.5197"/>
				<v:textRect cx="21.2598" cy="198.407" width="42.52" height="39.685"/>
				<text x="7.05" y="200.81" class="st3" v:langID="7177"><v:paragraph v:horizAlign="1"/><v:tabList/>REST API</text>			</g>
		</g>
		<g id="group15-72" transform="translate(180.75,-45.5943)" v:mID="15" v:groupContext="group">
			<v:userDefs>
				<v:ud v:nameU="visVersion" v:val="VT0(14):26"/>
			</v:userDefs>
			<title>2-D single.15</title>
			<desc>PKCS#11</desc>
			<g id="shape16-73" v:mID="16" v:groupContext="shape">
				<title>Sheet.16</title>
				<path d="M0 208.33 L32.6 208.33 L32.6 218.25 L42.52 198.41 L32.6 178.56 L32.6 188.49 L0 188.49 L0 208.33 Z"
						class="st8"/>
				<path d="M0 208.33 L32.6 208.33 L32.6 218.25 L42.52 198.41 L32.6 178.56 L32.6 188.49 L0 188.49" class="st9"/>
			</g>
			<g id="shape17-76" v:mID="17" v:groupContext="shape">
				<title>Sheet.17</title>
				<path d="M0 208.33 L32.6 208.33 L32.6 218.25 L42.52 198.41 L32.6 178.56 L32.6 188.49 L0 188.49 L0 208.33"
						class="st10"/>
			</g>
			<g id="shape18-79" v:mID="18" v:groupContext="shape" transform="translate(-0.381732,-10.1613)">
				<title>Sheet.18</title>
				<rect x="0" y="198.887" width="0.48" height="19.3625" class="st11"/>
			</g>
			<g id="shape15-81" v:mID="15" v:groupContext="groupContent">
				<v:textBlock v:margins="rect(4,4,4,4)" v:tabSpace="42.5197"/>
				<v:textRect cx="21.2598" cy="198.407" width="42.52" height="39.685"/>
				<text x="7.1" y="200.81" class="st3" v:langID="7177"><v:paragraph v:horizAlign="1"/><v:tabList/>PKCS#11</text>			</g>
		</g>
		<g id="group23-83" transform="translate(80.1201,-45.5943)" v:mID="23" v:groupContext="group">
			<v:userDefs>
				<v:ud v:nameU="visVersion" v:val="VT0(14):26"/>
			</v:userDefs>
			<title>2-D single.23</title>
			<desc>USB Passthrough</desc>
			<g id="shape24-84" v:mID="24" v:groupContext="shape">
				<title>Sheet.24</title>
				<path d="M0 208.33 L41.1 208.33 L41.1 218.25 L51.02 198.41 L41.1 178.56 L41.1 188.49 L0 188.49 L0 208.33 Z"
						class="st8"/>
				<path d="M0 208.33 L41.1 208.33 L41.1 218.25 L51.02 198.41 L41.1 178.56 L41.1 188.49 L0 188.49" class="st9"/>
			</g>
			<g id="shape25-87" v:mID="25" v:groupContext="shape">
				<title>Sheet.25</title>
				<path d="M0 208.33 L41.1 208.33 L41.1 218.25 L51.02 198.41 L41.1 178.56 L41.1 188.49 L0 188.49 L0 208.33"
						class="st10"/>
			</g>
			<g id="shape26-90" v:mID="26" v:groupContext="shape" transform="translate(-0.410079,-10.1613)">
				<title>Sheet.26</title>
				<rect x="0" y="198.887" width="0.48" height="19.3625" class="st11"/>
			</g>
			<g id="shape23-92" v:mID="23" v:groupContext="groupContent">
				<v:textBlock v:margins="rect(4,4,4,4)" v:tabSpace="42.5197"/>
				<v:textRect cx="25.5118" cy="198.407" width="51.03" height="39.685"/>
				<text x="18.93" y="196.01" class="st3" v:langID="7177"><v:paragraph v:horizAlign="1"/><v:tabList/>USB <tspan
							x="5.37" dy="1.2em" class="st4">Passthrough</tspan></text>			</g>
		</g>
		<g id="group32-95" transform="translate(435.868,-45.5943)" v:mID="32" v:groupContext="group">
			<v:userDefs>
				<v:ud v:nameU="visVersion" v:val="VT0(14):26"/>
			</v:userDefs>
			<title>2-D single.32</title>
			<desc>Metadata Aggregate</desc>
			<g id="shape33-96" v:mID="33" v:groupContext="shape">
				<title>Sheet.33</title>
				<path d="M0 208.33 L60.94 208.33 L60.94 218.25 L70.87 198.41 L60.94 178.56 L60.94 188.49 L0 188.49 L0 208.33 Z"
						class="st8"/>
				<path d="M0 208.33 L60.94 208.33 L60.94 218.25 L70.87 198.41 L60.94 178.56 L60.94 188.49 L0 188.49" class="st9"/>
			</g>
			<g id="shape34-99" v:mID="34" v:groupContext="shape">
				<title>Sheet.34</title>
				<path d="M0 208.33 L60.94 208.33 L60.94 218.25 L70.87 198.41 L60.94 178.56 L60.94 188.49 L0 188.49 L0 208.33"
						class="st10"/>
			</g>
			<g id="shape35-102" v:mID="35" v:groupContext="shape" transform="translate(-0.47622,-10.1613)">
				<title>Sheet.35</title>
				<rect x="0" y="198.887" width="0.48" height="19.3625" class="st11"/>
			</g>
			<g id="shape32-104" v:mID="32" v:groupContext="groupContent">
				<v:textBlock v:margins="rect(4,4,4,4)" v:tabSpace="42.5197"/>
				<v:textRect cx="35.4331" cy="198.407" width="70.87" height="39.685"/>
				<text x="19.49" y="196.01" class="st3" v:langID="7177"><v:paragraph v:horizAlign="1"/><v:tabList/>Metadata <tspan
							x="18.84" dy="1.2em" class="st4">Aggregate</tspan></text>			</g>
		</g>
		<g id="shape37-107" v:mID="37" v:groupContext="shape" transform="translate(10.6713,-184.492)">
			<title>Sheet.37</title>
			<desc>Secure hosting cage</desc>
			<v:textBlock v:margins="rect(4,4,4,4)" v:tabSpace="42.5197"/>
			<v:textRect cx="52" cy="210.25" width="104" height="16"/>
			<rect x="0" y="202.25" width="104" height="16" class="st5"/>
			<text x="4" y="213.25" class="st6" v:langID="7177"><v:paragraph/><v:tabList/>Secure hosting cage</text>		</g>
		<g id="shape39-110" v:mID="39" v:groupContext="shape" transform="translate(0.75,-201.5)">
			<title>Sheet.39</title>
			<desc>Access controlled data centre</desc>
			<v:textBlock v:margins="rect(4,4,4,4)" v:tabSpace="42.5197"/>
			<v:textRect cx="68.9528" cy="210.25" width="137.91" height="16"/>
			<rect x="0" y="202.25" width="137.906" height="16" class="st5"/>
			<text x="4" y="213.25" class="st6" v:langID="7177"><v:paragraph/><v:tabList/>Access controlled data centre</text>		</g>
	</g>
</svg>
