<?xml version="1.0" encoding="UTF-8" standalone="no"?>
<!-- Generator: Adobe Illustrator 20.0.0, SVG Export Plug-In . SVG Version: 6.00 Build 0)  -->

<svg
   xmlns:dc="http://purl.org/dc/elements/1.1/"
   xmlns:cc="http://creativecommons.org/ns#"
   xmlns:rdf="http://www.w3.org/1999/02/22-rdf-syntax-ns#"
   xmlns:svg="http://www.w3.org/2000/svg"
   xmlns="http://www.w3.org/2000/svg"
   xmlns:sodipodi="http://sodipodi.sourceforge.net/DTD/sodipodi-0.dtd"
   xmlns:inkscape="http://www.inkscape.org/namespaces/inkscape"
   version="1.1"
   id="Layer_1"
   x="0px"
   y="0px"
   viewBox="0 0 300 65.000002"
   xml:space="preserve"
   inkscape:version="0.91 r13725"
   sodipodi:docname="SAFIRE_P_Charcoal.svg"
   width="300"
   height="65"><metadata
     id="metadata19"><rdf:RDF><cc:Work
         rdf:about=""><dc:format>image/svg+xml</dc:format><dc:type
           rdf:resource="http://purl.org/dc/dcmitype/StillImage" /><dc:title /></cc:Work></rdf:RDF></metadata><defs
     id="defs17" /><sodipodi:namedview
     pagecolor="#ffffff"
     bordercolor="#666666"
     borderopacity="1"
     objecttolerance="10"
     gridtolerance="10"
     guidetolerance="10"
     inkscape:pageopacity="0"
     inkscape:pageshadow="2"
     inkscape:window-width="1920"
     inkscape:window-height="1017"
     id="namedview15"
     showgrid="false"
     inkscape:zoom="4"
     inkscape:cx="137.61312"
     inkscape:cy="62.349998"
     inkscape:window-x="1912"
     inkscape:window-y="-8"
     inkscape:window-maximized="1"
     inkscape:current-layer="Layer_1" /><style
     type="text/css"
     id="style3">
	.st0{fill:#33383C;}
</style><path
     class="st0"
     d="m 32.032211,7.8421245 0,0 c -0.109105,0.1091058 -0.327317,0.3273162 -0.436422,0.4364219 l -0.218211,0.2182115 -0.981951,0.9819512 0,0 -17.78422,17.6751139 -0.21821,0.218211 c -4.0369108,4.473332 -3.927805,11.346987 0.327315,15.602108 2.182112,2.182113 4.909755,3.27317 7.964712,3.27317 2.836747,0 5.455283,-0.981951 7.52829,-2.945852 0.109105,-0.109106 0.327316,-0.327318 0.327316,-0.327318 L 46.761474,24.7535 c 1.418374,-1.418374 3.164063,-2.182114 5.127966,-2.182114 1.9639,0 3.818696,0.76374 5.127965,2.182114 2.836746,2.836746 2.836746,7.419183 0,10.25593 l -17.566008,17.78422 0,0 -0.763741,0.76374 -0.654633,0.545528 c -0.327318,0.327316 -0.763741,0.654633 -1.200163,0.981952 l 0,0 c -0.327316,0.327316 -0.763739,0.654633 -1.200162,0.872844 l -0.109105,0.109106 c -0.327319,0.218211 -0.763739,0.545527 -1.200163,0.76374 l -0.109106,0.109105 c -0.436422,0.218212 -0.76374,0.436422 -1.200161,0.654632 l -0.109106,0.109107 c -0.436423,0.218212 -0.76374,0.436423 -1.200163,0.654634 l -0.218211,0.109106 c -0.436422,0.218212 -0.872846,0.327317 -1.200162,0.545528 l -0.218211,0.109105 c -0.436423,0.109106 -0.872845,0.327317 -1.309267,0.436423 l -0.218213,0.109107 c -0.436422,0.109105 -0.872844,0.21821 -1.309267,0.327316 l -0.218211,0 c -0.436423,0.109105 -0.872845,0.218211 -1.309268,0.327317 l -0.218211,0 c -0.436423,0.109106 -0.872845,0.109106 -1.309268,0.218211 l -0.218211,0 c -0.436423,0.109106 -0.872846,0.109106 -1.309268,0.109106 l -0.218211,0 c -0.436422,0 -0.872846,0 -1.309267,0.109106 l -0.109107,0 -0.436422,0 c -2.727642,0 -5.455283,-0.436423 -8.073818,-1.309269 l 0,0 -0.436423,-0.109105 c -0.218211,-0.109106 -0.545528,-0.109106 -0.76374,-0.109106 -0.545527,0 -1.091056,0.218211 -1.418372,0.545529 -0.7637402,0.763739 -0.7637402,2.073008 0,2.836746 0.218211,0.218212 0.436421,0.327318 0.654634,0.436423 0.109105,0 0.109105,0 0.218211,0.109106 0.98195,0.327317 1.963901,0.654634 3.054958,0.872845 l 0.327317,0.109105 0.327317,0.109106 c 0.109105,0 0.327316,0.109105 0.436421,0.109105 0.109106,0 0.218212,0 0.436424,0.109106 0.109106,0 0.327317,0.109106 0.436423,0.109106 0.109105,0 0.21821,0 0.436422,0.109106 0.109105,0 0.327317,0 0.436423,0.109105 0.109105,0 0.218211,0 0.436421,0 0.109107,0 0.327318,0 0.436424,0.109106 0.109106,0 0.218211,0 0.436422,0 0.109105,0 0.327317,0 0.436423,0 0.109105,0 0.218211,0 0.436422,0 0.109106,0 0.327319,0 0.436423,0 0.109106,0 0.218212,0 0.436422,0 0.109106,0 0.327317,0 0.436424,0 0.109105,0 0.21821,0 0.436422,0 l 0.218211,0 0.218211,0 c 0.109107,0 0.327317,0 0.436422,0 0.109106,0 0.327317,0 0.436423,0 0.109107,0 0.218212,0 0.436424,0 0.109105,0 0.327316,0 0.436421,0 0.109106,0 0.327317,0 0.436423,0 0.109106,0 0.327317,0 0.436423,0 0.109105,0 0.21821,0 0.327317,0 0,0 0.327317,0 0.545529,-0.109106 0.109105,0 0.436421,-0.109105 0.436421,-0.109105 0.109106,0 0.327317,0 0.436423,-0.109106 0.109106,0 0.218211,0 0.436423,-0.109106 0.109107,0 0.327317,0 0.436423,-0.109106 0.109104,0 0.436421,-0.109105 0.436421,-0.109105 0.109106,0 0.327318,-0.109106 0.436423,-0.109106 0.109106,0 0.545529,-0.109105 0.545529,-0.109105 0.109105,0 0.218212,-0.109105 0.327318,-0.109105 0.109104,0 0.43642,-0.109106 0.43642,-0.109106 0,0 0.327319,-0.109106 0.436424,-0.109106 0.109106,0 0.545528,-0.109105 0.545528,-0.109105 0.109105,0 0.218211,-0.109106 0.327318,-0.109106 0.109104,0 0.21821,-0.109107 0.327316,-0.109107 l 0.109106,0 c 0.109105,0 0.218211,-0.109105 0.327316,-0.109105 0.109105,0 0.218212,-0.109105 0.327318,-0.109105 l 0.109105,0 c 0,0 0.327318,-0.109106 0.436423,-0.109106 0.109105,0 0.436422,-0.218211 0.436422,-0.218211 0,0 0.327317,-0.109106 0.436423,-0.218212 0.109105,0 0.218211,-0.109105 0.327317,-0.109105 0,0 0.436423,-0.218212 0.545528,-0.218212 0.109105,0 0.218211,-0.109105 0.327316,-0.109105 0,0 0.436423,-0.218211 0.545529,-0.218211 0.109106,0 0.218211,-0.109105 0.327317,-0.109105 l 0.218211,-0.109106 c 0.109107,0 0.218213,-0.109106 0.327318,-0.109106 0.109105,0 0.21821,-0.109107 0.327315,-0.218212 L 35.30538,61.30389 c 0,0 0.327318,-0.109106 0.436424,-0.218211 0.109106,-0.109106 0.218211,-0.109106 0.327317,-0.218211 l 0.21821,-0.109105 c 0.109106,0 0.218213,-0.109106 0.218213,-0.109106 0.109104,-0.109106 0.21821,-0.109106 0.327316,-0.218211 l 0.109106,-0.109106 c 0,0 0.327316,-0.218212 0.327316,-0.218212 0.109105,-0.109105 0.218212,-0.109105 0.327318,-0.218211 l 0.218211,-0.21821 c 0.109106,0 0.109106,-0.109107 0.218212,-0.109107 0.109105,-0.109106 0.218211,-0.109106 0.327316,-0.218211 l 0.109105,-0.109106 c 0,0 0.218212,-0.218211 0.327317,-0.218211 0.109106,-0.109105 0.218212,-0.218211 0.327317,-0.218211 0,0 0.327319,-0.218211 0.436423,-0.327317 0.109106,-0.109106 0.327317,-0.218211 0.436422,-0.327317 l 0.327317,-0.218211 c 0.218212,-0.218212 0.436423,-0.436423 0.654634,-0.654635 l 0.76374,-0.654634 0.436422,-0.436422 0,0 18.220644,-18.220642 0.21821,-0.218212 c 4.03691,-4.473331 3.927804,-11.346987 -0.327316,-15.602107 -2.182113,-2.182114 -4.909755,-3.27317 -7.964713,-3.27317 -2.836746,0 -5.455282,0.98195 -7.528288,2.945852 -0.109106,0.109107 -0.327318,0.327318 -0.327318,0.327318 L 25.922297,40.137395 c -1.418374,1.418375 -3.164066,2.182113 -5.127967,2.182113 -1.963902,0 -3.818698,-0.763738 -5.127965,-2.182113 -2.836748,-2.836748 -2.836748,-7.419184 0,-10.25593 l 17.784219,-17.784221 0,0 0.654635,-0.654634 0.218211,-0.218211 c 0.218211,-0.218211 0.436424,-0.436422 0.436424,-0.436422 4.800647,-4.2551207 10.910563,-6.655445 17.347796,-6.655445 2.727641,0 5.455283,0.4364226 8.073818,1.3092677 l 0,0 0.545529,0.2182113 c 0.218211,0.1091056 0.545527,0.1091056 0.763739,0.1091056 0.545529,0 1.091057,-0.2182112 1.418374,-0.5455282 0.76374,-0.7637395 0.76374,-2.0730071 0,-2.8367468 C 62.690898,2.1686303 62.472686,2.0595247 62.254475,1.950419 l 0,0 c -0.109105,0 -0.109105,-0.1091057 -0.21821,-0.1091057 C 58.8722,0.75025686 55.489925,0.09562301 52.10765,0.09562301 c -7.528289,0 -14.620156,2.72764129 -20.075439,7.74650049"
     id="path5"
     inkscape:connector-curvature="0"
     style="fill:#33383c" /><path
     class="st0"
     d="m 25.158556,1.5139969 0,0 L 5.9559616,20.71659 5.6286456,21.153014 C 2.6827927,24.317077 0.82799683,28.353985 0.39157412,32.609107 l 0,0.109104 c 0,0 0,0.436423 -0.10910561,0.545529 l 0,0.109104 c -0.43642255,5.673495 1.52747909,11.237883 5.34617709,15.493002 0,0 0.2182114,0.218212 0.2182114,0.327318 0.1091046,0.109106 0.2182103,0.218211 0.327316,0.327317 0.1091057,0.109106 0.2182115,0.218211 0.4364229,0.436423 l 0,0 c 0.1091057,0.109106 0.2182114,0.218211 0.3273171,0.327317 0.2182115,0.21821 0.5455286,0.436422 0.763739,0.654633 3.600486,2.945853 8.182924,4.582436 12.874467,4.582436 l 0,0 c 5.127965,0 10.037718,-1.854794 13.747311,-5.346175 0.109106,-0.109105 0.545529,-0.436423 0.545529,-0.436423 l 0.545527,-0.545528 0,0 17.893327,-17.893326 c 0.76374,-0.763741 0.76374,-2.073007 0,-2.836748 -0.327316,-0.327315 -0.872846,-0.545526 -1.418373,-0.545526 -0.545529,0 -1.091057,0.218211 -1.418374,0.545526 L 32.250423,46.901946 c 0,0 -0.327317,0.327317 -0.436423,0.436422 -3.054957,2.727642 -6.982762,4.25512 -11.128776,4.25512 -3.927803,0 -7.637395,-1.418373 -10.6923529,-3.927804 C 9.7746599,47.556579 9.6655538,47.338368 9.4473422,47.229263 l 0,0 C 9.2291316,47.120157 9.1200258,46.901946 8.9018153,46.79284 8.7927094,46.683734 8.6836036,46.574628 8.5744978,46.465523 8.465392,46.356417 8.3562862,46.247312 8.2471804,46.138207 5.1922227,42.755931 3.773849,38.50081 3.9920604,34.027479 c 0,-0.218211 0,-0.436422 0,-0.654635 l 0,-0.109104 c 0,-0.218212 0,-0.327317 0.1091057,-0.545529 l 0,-0.109104 c 0.545528,-3.273171 1.9639012,-6.219023 4.1460143,-8.728453 l 0.3273174,-0.327317 1.7456892,-1.745691 0,0 17.347799,-17.3477967 0,0 c 0.763738,-0.7637395 0.763738,-2.0730073 0,-2.8367468 C 27.340669,1.2957857 26.79514,1.0775743 26.249613,1.0775743 26.031401,0.9684686 25.485873,1.18668 25.158556,1.5139969"
     id="path7"
     inkscape:connector-curvature="0"
     style="fill:#33383c" /><path
     class="st0"
     d="m 38.251234,14.715779 c -0.109106,0 -0.545529,0.436424 -0.545529,0.436424 l -0.545528,0.545528 0,0 -17.78422,17.893326 c -0.76374,0.763739 -0.76374,2.073007 0,2.836747 0.327316,0.327316 0.872845,0.545527 1.418373,0.545527 0.545528,0 1.091056,-0.218211 1.418374,-0.545527 l 18.329748,-18.32975 c 0,0 0.327317,-0.327316 0.436422,-0.436421 3.054959,-2.727643 6.982762,-4.255121 11.128776,-4.255121 3.927804,0 7.637397,1.418372 10.692354,3.927803 0.218211,0.109106 0.327317,0.327318 0.545528,0.436423 l 0,0 c 0.218212,0.109106 0.327318,0.327316 0.545529,0.436422 0.109105,0.109106 0.21821,0.218211 0.327316,0.327317 0.109106,0.109106 0.21821,0.218211 0.327317,0.327317 3.054959,3.382276 4.473331,7.637395 4.255121,12.110727 0,0.218212 0,0.436423 0,0.654633 l 0,0.109106 c 0,0.218211 0,0.327317 -0.109105,0.545529 l 0,0.109105 c -0.54553,3.27317 -1.963903,6.219022 -4.146016,8.728452 l -0.327317,0.327318 -1.745691,1.74569 0,0 -17.566008,17.347797 0,0 c -0.763741,0.763739 -0.763741,2.073007 0,2.836746 0.327316,0.327318 0.872845,0.54553 1.418373,0.54553 0.545528,0 0.981952,-0.218212 1.418373,-0.54553 l 0,0 19.202594,-19.202593 0.327318,-0.436423 c 2.945851,-3.164063 4.800648,-7.200971 5.23707,-11.456092 l 0,-0.218212 c 0,0 0,-0.327317 0,-0.436423 l 0,-0.109104 C 72.946829,25.844557 70.982927,20.280168 67.16423,16.025047 L 66.946018,15.697731 C 66.836913,15.588625 66.727807,15.47952 66.618702,15.370414 66.509597,15.261308 66.40049,15.152203 66.182279,14.93399 l 0,0 c -0.109106,-0.109106 -0.218212,-0.218211 -0.327318,-0.327316 l 0,0 C 65.63675,14.388464 65.309434,14.170251 65.091223,13.95204 61.490736,11.006188 56.9083,9.3696033 52.216756,9.3696033 c -5.346177,0 -10.255932,1.9639007 -13.965522,5.3461757"
     id="path9"
     inkscape:connector-curvature="0"
     style="fill:#33383c" /><path
     class="st0"
     d="m 90.403732,48.75674 c -1.309267,0 -1.963902,0.436424 -1.963902,1.418375 l 0,0.654632 c 0,0.654636 0.436424,1.200164 1.309268,1.52748 l 0.872846,0.327317 c 0.436423,0.109106 0.654633,0.327318 0.654633,0.545529 l 0,0.545528 c 0,0.327317 -0.327316,0.545528 -0.872845,0.545528 l -1.963902,0 0,0.981952 1.963902,0.109105 c 1.200162,0 1.854796,-0.545528 1.854796,-1.527479 l 0,-0.545529 c 0,-0.763739 -0.545528,-1.309267 -1.418373,-1.636584 l -0.763739,-0.218211 c -0.436423,-0.109106 -0.654635,-0.327317 -0.654635,-0.545529 l 0,-0.654633 c 0,-0.218211 0.327317,-0.436424 0.872846,-0.436424 l 1.74569,0 0,-0.981951 -1.636585,-0.109106 0,0 z m 7.091859,0 -0.545527,0 c -1.309267,0 -1.963895,0.981952 -1.963895,2.836748 l 0,0.872845 c 0,1.854796 0.654628,2.836748 1.963895,2.836748 l 0.545527,0 c 1.309271,0 1.963905,-0.981952 1.963905,-2.836748 l 0,-0.872845 c 0,-1.854796 -0.654634,-2.836748 -1.963905,-2.836748 l 0,0 0,0 z m 0,1.091057 c 0.545526,0 0.872848,0.654634 0.872848,1.854797 l 0,0.763739 c 0,1.200163 -0.327322,1.854796 -0.872848,1.854796 l -0.545527,0 c -0.545528,0 -0.872847,-0.654633 -0.872847,-1.854796 l 0,-0.763739 c 0,-1.200163 0.327319,-1.854797 0.872847,-1.854797 l 0.545527,0 0,0 z m 5.018869,-1.091057 0,4.255122 c 0,1.527478 0.65463,2.291219 2.073,2.291219 l 0.1091,0 c 1.41838,0 2.07301,-0.763741 2.07301,-2.291219 l 0,-4.255122 -1.09105,0 0,4.255122 c 0,0.872845 -0.32733,1.200161 -0.98196,1.200161 l -0.1091,0 c -0.65463,0 -0.98194,-0.436422 -0.98194,-1.200161 l 0,-4.255122 -1.09106,0 0,0 z m 7.09187,0 0,1.091057 1.74568,0 0,5.455284 1.09105,0 0,-5.455284 1.63659,0 0,-1.091057 -4.47332,0 0,0 z m 7.20096,0 0,6.546341 1.09106,0 0,-2.727642 1.96391,0 0,2.727642 1.09105,0 0,-6.546341 -1.09105,0 0,2.727643 -1.96391,0 0,-2.727643 -1.09106,0 0,0 z m 16.03854,6.546341 -1.7457,-6.000811 c -0.10911,-0.327317 -0.32731,-0.54553 -0.54554,-0.54553 l -0.65463,0 c -0.32731,0 -0.43642,0.218213 -0.54552,0.54553 l -1.74568,6.000811 1.09105,0 0.43642,-1.52748 2.29122,0 0.43642,1.52748 0.98196,0 0,0 z m -3.49139,-2.509431 0.76374,-2.618535 0.10911,0 0.76373,2.618535 -1.63658,0 0,0 z m 10.25593,-3.927804 -2.83674,-0.109106 c -0.76374,0 -1.20017,0.436424 -1.20017,1.30927 l 0,5.237071 1.09106,0 0,-2.727642 2.29121,0 0,-1.091056 -2.29121,0 0,-1.527479 c 0,-0.109107 0,-0.218212 0.10911,-0.218212 l 2.83674,0 0,-0.872846 0,0 z m 3.60049,2.945854 0,-2.073008 1.30927,0 c 0.54552,0 0.87284,0.327318 0.87284,0.981951 0,0.654634 -0.2182,0.981951 -0.76374,0.981951 l -1.41837,0 0,0.109106 z m 1.96391,3.491381 1.20015,0 -1.20015,-2.618537 c 0.76373,0 1.09105,-0.654633 1.20015,-1.963901 0,-1.309268 -0.54552,-2.073007 -1.74569,-2.073007 l -2.50943,0 0,6.546339 1.09106,0 0,-2.400325 0.87284,0 1.09107,2.509431 0,0 z m 4.25512,-6.546341 0,6.546341 1.09105,0 0,-6.546341 -1.09105,0 0,0 z m 8.0738,5.346178 c -0.65463,0.109105 -1.30926,0.109105 -1.9639,0.109105 -0.65464,0 -1.09105,-0.763739 -1.09105,-2.182112 0,-1.52748 0.32732,-2.182114 1.09105,-2.182114 0.65464,0 1.30927,0 1.9639,0.109107 l 0,-0.981951 c -0.65463,-0.109107 -1.30926,-0.218213 -1.9639,-0.218213 -1.41837,0 -2.073,1.091057 -2.073,3.273171 0,2.182112 0.65463,3.27317 2.073,3.27317 0.65464,0 1.30927,-0.109106 1.9639,-0.218211 l 0,-0.981952 0,0 z m 7.7465,1.200163 -1.74569,-6.000811 c -0.1091,-0.327317 -0.32731,-0.54553 -0.54552,-0.54553 l -0.65463,0 c -0.32732,0 -0.43643,0.218213 -0.54552,0.54553 l -1.7457,6.000811 1.09106,0 0.43641,-1.52748 2.29123,0 0.43643,1.52748 0.98193,0 0,0 z m -3.49136,-2.509431 0.76373,-2.618535 0.1091,0 0.76374,2.618535 -1.63657,0 0,0 z m 7.31007,2.509431 0,-5.237071 0.1091,0 1.41838,4.909754 c 0.1091,0.218211 0.21821,0.327317 0.43642,0.327317 l 1.09105,0 c 0.21821,0 0.43642,-0.109106 0.43642,-0.327317 l 0,-6.219024 -1.09104,0 0,5.455283 0,0 -1.52749,-5.127965 c -0.10911,-0.218212 -0.21821,-0.327318 -0.43641,-0.327318 l -1.09106,0 c -0.21822,0 -0.43643,0.109106 -0.43643,0.327318 l 0,6.219023 1.09106,0 0,0 z m 10.69236,-6.546341 0,6.546341 1.09105,0 0,-6.546341 -1.09105,0 0,0 z m 6.65543,6.655446 c 1.41838,0 2.07301,-1.091057 2.07301,-3.27317 0,-2.182112 -0.65463,-3.27317 -2.07301,-3.27317 l -2.29122,0 0,6.655444 2.29122,0 0,-0.109104 z m -1.20016,-1.091057 0,-4.473332 1.20016,0 c 0.65464,0 0.98196,0.76374 0.98196,2.182114 0,1.527479 -0.32732,2.291218 -0.98196,2.291218 l -1.20016,0 0,0 z m 10.36504,-5.455283 -2.83674,-0.109106 c -0.76375,0 -1.20018,0.436424 -1.20018,1.30927 l 0,4.036908 c 0,0.872846 0.43643,1.309268 1.20018,1.309268 l 2.83674,-0.109105 0,-0.981952 -2.83674,0 c -0.10911,0 -0.10911,-0.109106 -0.10911,-0.218211 l 0,-1.527479 2.29122,0 0,-0.981951 -2.29122,0 0,-1.527478 c 0,-0.109106 0,-0.218213 0.10911,-0.218213 l 2.83674,0 0,-0.981951 0,0 z m 3.8187,6.437235 0,-5.237071 0.1091,0 1.41839,4.909754 c 0.10909,0.218211 0.2182,0.327317 0.4364,0.327317 l 1.09107,0 c 0.21821,0 0.43642,-0.109106 0.43642,-0.327317 l 0,-6.219024 -1.09106,0 0,5.455283 -0.10911,0 -1.52748,-5.127965 c -0.1091,-0.218212 -0.21821,-0.327318 -0.43642,-0.327318 l -1.09106,0 c -0.2182,0 -0.43643,0.109106 -0.43643,0.327318 l 0,6.219023 1.20018,0 0,0 z m 6.43723,-6.546341 0,1.091057 1.74569,0 0,5.455284 1.09107,0 0,-5.455284 1.63657,0 0,-1.091057 -4.47333,0 0,0 z m 7.20097,0 0,6.546341 1.09106,0 0,-6.546341 -1.09106,0 0,0 z m 3.9278,0 0,1.091057 1.74569,0 0,5.455284 1.09106,0 0,-5.455284 1.63658,0 0,-1.091057 -4.47333,0 0,0 z m 6.65545,0 1.74568,4.364227 0,2.182114 1.09106,0 0,-2.182114 1.85481,-4.364227 -1.20018,0 -1.30926,3.164065 0.10911,0 -1.20017,-3.164065 -1.09105,0 0,0 z m 15.16568,0.109106 -2.83675,-0.109106 c -0.76373,0 -1.20015,0.436424 -1.20015,1.30927 l 0,5.237071 1.09105,0 0,-2.727642 2.29122,0 0,-1.091056 -2.29122,0 0,-1.527479 c 0,-0.109107 0,-0.218212 0.1091,-0.218212 l 2.83675,0 0,-0.872846 0,0 z m 6.43723,0 -2.83674,-0.109106 c -0.76374,0 -1.20016,0.436424 -1.20016,1.30927 l 0,4.036908 c 0,0.872846 0.43642,1.309268 1.20016,1.309268 l 2.83674,-0.109105 0,-0.981952 -2.83674,0 c -0.1091,0 -0.1091,-0.109106 -0.1091,-0.218211 l 0,-1.527479 2.29121,0 0,-0.981951 -2.29121,0 0,-1.527478 c 0,-0.109106 0,-0.218213 0.1091,-0.218213 l 2.83674,0 0,-0.981951 0,0 z m 5.12796,6.54634 c 1.41838,0 2.07301,-1.091057 2.07301,-3.27317 0,-2.182112 -0.65463,-3.27317 -2.07301,-3.27317 l -2.2912,0 0,6.655444 2.2912,0 0,-0.109104 z m -1.20015,-1.091057 0,-4.473332 1.20015,0 c 0.65464,0 0.98196,0.76374 0.98196,2.182114 0,1.527479 -0.32732,2.291218 -0.98196,2.291218 l -1.20015,0 0,0 z m 10.36503,-5.455283 -2.83674,-0.109106 c -0.76374,0 -1.20016,0.436424 -1.20016,1.30927 l 0,4.036908 c 0,0.872846 0.43642,1.309268 1.20016,1.309268 l 2.83674,-0.109105 0,-0.981952 -2.83674,0 c -0.1091,0 -0.1091,-0.109106 -0.1091,-0.218211 l 0,-1.527479 2.29121,0 0,-0.981951 -2.29121,0 0,-1.527478 c 0,-0.109106 0,-0.218213 0.1091,-0.218213 l 2.83674,0 0,-0.981951 0,0 z m 3.81869,2.945854 0,-2.073008 1.30928,0 c 0.54553,0 0.87285,0.327318 0.87285,0.981951 0,0.654634 -0.21822,0.981951 -0.76374,0.981951 l -1.41839,0 0,0.109106 z m 1.96391,3.491381 1.20016,0 -1.20016,-2.509431 c 0.76375,0 1.09106,-0.654634 1.20016,-1.963903 0,-1.309266 -0.54553,-2.073007 -1.74568,-2.073007 l -2.50943,0 0,6.546341 1.09104,0 0,-2.509431 0.87286,0 1.09105,2.509431 0,0 z m 9.05578,0 -1.7457,-6.000811 c -0.1091,-0.327317 -0.32731,-0.54553 -0.54552,-0.54553 l -0.65463,0 c -0.32734,0 -0.43643,0.218213 -0.54554,0.54553 l -1.74569,6.000811 1.09106,0 0.43643,-1.52748 2.29121,0 0.43643,1.52748 0.98195,0 0,0 z m -3.49139,-2.509431 0.76374,-2.618535 0.10911,0 0.76374,2.618535 -1.63659,0 0,0 z m 5.23707,-4.03691 0,1.091057 1.7457,0 0,5.455284 1.09106,0 0,-5.455284 1.63657,0 0,-1.091057 -4.47333,0 0,0 z m 7.20097,0 0,6.546341 1.09106,0 0,-6.546341 -1.09106,0 0,0 z m 6.43724,0 -0.54552,0 c -1.30927,0 -1.9639,0.981952 -1.9639,2.836748 l 0,0.872845 c 0,1.854796 0.65463,2.836748 1.9639,2.836748 l 0.54552,0 c 1.30927,0 1.96389,-0.981952 1.96389,-2.836748 l 0,-0.872845 c 0,-1.854796 -0.65462,-2.836748 -1.96389,-2.836748 l 0,0 0,0 z m 0,1.091057 c 0.54553,0 0.87285,0.654634 0.87285,1.854797 l 0,0.763739 c 0,1.200163 -0.32732,1.854796 -0.87285,1.854796 l -0.54552,0 c -0.54553,0 -0.87285,-0.654633 -0.87285,-1.854796 l 0,-0.763739 c 0,-1.200163 0.32732,-1.854797 0.87285,-1.854797 l 0.54552,0 0,0 z m 6.10991,5.455284 0,-5.237071 0.10912,0 1.41836,4.909754 c 0.10912,0.218211 0.21822,0.327317 0.43643,0.327317 l 1.09105,0 c 0.21822,0 0.43642,-0.109106 0.43642,-0.327317 l 0,-6.219024 -1.09105,0 0,5.455283 -0.1091,0 -1.52748,-5.127965 c -0.10911,-0.218212 -0.21821,-0.327318 -0.43643,-0.327318 l -1.09105,0 c -0.21822,0 -0.43642,0.109106 -0.43642,0.327318 l 0,6.219023 1.20015,0 0,0 z"
     id="path11"
     inkscape:connector-curvature="0"
     style="fill:#33383c" /><path
     class="st0"
     d="m 92.367634,33.918373 c 1.74569,1.091057 3.600478,1.636585 5.782594,1.636585 2.727642,0 5.018862,-0.872844 6.982752,-2.727641 1.85481,-1.854796 2.83675,-4.036909 2.83675,-6.546339 0,-1.74569 -0.54553,-3.273168 -1.63658,-4.800649 -1.09106,-1.418372 -3.16406,-3.273169 -6.10991,-5.455282 -2.509437,-1.854796 -4.036917,-3.054958 -4.473338,-3.49138 -0.872839,-0.76374 -1.418366,-1.527479 -1.745684,-2.29122 -0.327316,-0.7637379 -0.436421,-1.4183717 -0.436421,-2.182112 0,-1.2001614 0.436421,-2.2912178 1.309266,-3.164063 0.872839,-0.8728452 2.073001,-1.3092679 3.382264,-1.3092679 1.091058,0 2.073023,0.327317 3.054963,0.8728452 0.87284,0.5455283 2.07301,1.6365848 3.27317,3.3822752 l 2.83674,-2.0730073 c -1.63658,-2.1821131 -3.05494,-3.6004864 -4.47332,-4.4733315 -1.41838,-0.76373965 -2.94586,-1.20016217 -4.582441,-1.20016217 -1.527481,0 -2.945846,0.32731692 -4.255115,1.09105647 -1.309267,0.7637394 -2.291218,1.7456904 -3.054957,2.9458524 -0.76374,1.200162 -1.091057,2.6185356 -1.091057,4.146014 0,1.9639006 0.654634,3.7095916 1.854796,5.3461766 0.654634,0.981951 2.50943,2.509431 5.346168,4.691543 2.836746,1.636584 4.909756,3.164063 5.891706,4.691544 0.76375,1.091055 1.20017,2.291217 1.20017,3.382274 0,0.98195 -0.21821,1.963901 -0.76375,2.836747 -0.54552,0.872845 -1.30927,1.636585 -2.29121,2.182113 -0.98195,0.545527 -2.073016,0.763739 -3.273174,0.763739 -2.727636,0 -5.127959,-1.854796 -7.200966,-5.673494 l -2.945852,1.74569 c 1.309267,2.727642 2.836746,4.582438 4.582436,5.673494 l 0,0 z M 140.59233,0.64115166 124.22647,35.22764 l 3.81869,0 5.34619,-11.346986 14.94748,0 5.45527,11.346986 3.70959,0 -16.14763,-34.58648834 -0.76373,0 0,0 z m 6.32812,19.85722734 -11.89251,0 6.00082,-12.5471487 5.89169,12.5471487 0,0 z m 28.913,14.838367 3.49138,0 0,-16.911375 9.27398,0 0,-3.382275 -9.27398,0 0,-10.801458 15.60211,0 0,-3.38227502 -19.09349,0 0,34.47738302 0,0 z m 37.85965,0 3.49138,0 0,-34.58648863 -3.49138,0 0,34.58648863 0,0 z m 24.43967,0 3.49138,0 0,-16.147635 4.47333,0 9.92861,16.038529 4.25513,0 -9.92863,-16.038529 c 1.20018,0 2.61854,-0.327317 4.25514,-1.091057 1.63658,-0.763739 2.94584,-1.854794 3.81869,-3.27317 0.87285,-1.418372 1.30927,-3.054957 1.30927,-5.0188584 0,-2.2912182 -0.65463,-4.1460141 -1.9639,-5.6734932 -1.30927,-1.527479 -2.94585,-2.5094299 -5.01887,-3.0549581 -1.41837,-0.32731693 -3.9278,-0.43642264 -7.85559,-0.43642264 l -6.87367,0 0,34.69559434 0.10911,0 z m 9.49219,-31.2042136 c 2.40033,0 4.03691,0.2182113 5.12796,0.6546339 0.98197,0.4364225 1.85481,1.0910565 2.50944,2.0730073 0.65463,0.9819509 0.98195,1.9639017 0.98195,3.1640634 0,1.200162 -0.32732,2.29122 -0.87285,3.27317 -0.65463,0.981951 -1.52748,1.636583 -2.61854,2.073007 -1.09105,0.436422 -2.83674,0.654633 -5.12796,0.654633 l -5.8917,0 0,-11.8925146 5.8917,0 0,0 z m 32.40438,31.2042136 19.63902,0 0,-3.382275 -16.25675,0 0,-13.638205 9.92862,0 0,-3.382276 -9.92862,0 0,-10.8014576 16.36585,0 0,-3.38227503 -19.85723,0 0,34.58648863 0.10911,0 z"
     id="path13"
     inkscape:connector-curvature="0"
     style="fill:#33383c" /></svg>