<svg id="Layer_1" data-name="Layer 1" xmlns="http://www.w3.org/2000/svg" xmlns:xlink="http://www.w3.org/1999/xlink" viewBox="0 0 325.98 124.72"><defs><style>.cls-1{fill:url(#linear-gradient);}.cls-2{fill:#fff;}</style><linearGradient id="linear-gradient" y1="62.36" x2="325.98" y2="62.36" gradientUnits="userSpaceOnUse"><stop offset="0" stop-color="#5da8dc"/><stop offset="1" stop-color="#6d488b"/></linearGradient></defs><title>SAFIRE_P_W_Gradient</title><rect class="cls-1" width="325.98" height="124.72"/><path class="cls-2" d="M55,39.78l0,0-.41.38-.22.2-.91.91h0L37.25,57.45l-.21.23A10.34,10.34,0,0,0,51.6,72.32l.29-.27L68.59,55.35A6.67,6.67,0,1,1,78,64.79L61.81,81h0l-.67.67-.59.54q-.52.47-1.11.94l0,0c-.34.27-.71.55-1.1.82l-.08.06c-.35.24-.71.48-1.11.73l-.11.07c-.35.22-.73.43-1.12.64l-.13.07c-.36.19-.74.38-1.13.56l-.16.07c-.37.17-.75.33-1.14.48l-.17.07c-.37.14-.76.28-1.16.41l-.18.06c-.38.12-.77.23-1.17.34l-.18,0c-.4.1-.79.19-1.18.27l-.18,0c-.4.08-.81.14-1.2.2l-.18,0c-.42.05-.82.1-1.21.13h-.17c-.42,0-.83,0-1.23.06h-.5a23.62,23.62,0,0,1-7.41-1.2l0,0-.46-.2a1.84,1.84,0,0,0-2,3,1.87,1.87,0,0,0,.59.4l.22.08a27.28,27.28,0,0,0,2.78.82l.3.08.29.06.43.09.37.07.43.08.37.06.43.06.37,0,.43.05.37,0,.43,0,.37,0,.44,0,.37,0h2l.38,0,.43,0,.38,0,.43,0,.32,0,.49-.06.38-.05.42-.06.39-.07.41-.07.39-.08.41-.09.46-.11.33-.08.38-.1.4-.11.46-.13.33-.1.32-.1.14,0,.32-.11.3-.11.08,0,.39-.14.38-.15.38-.15.27-.12.48-.21.29-.14.46-.22.27-.14.21-.11.26-.13.27-.15.11-.06.35-.19.27-.16.23-.14.23-.14.28-.18.1-.06.33-.21.27-.18.22-.15.21-.14.31-.22.09-.06.29-.21.31-.24.37-.29.38-.31.29-.24.65-.57.67-.61L64,84h0L80.73,67.27l.21-.23A10.34,10.34,0,0,0,66.38,52.4l-.29.26L49.39,69.37a6.67,6.67,0,1,1-9.44-9.44L56.23,43.66h0l.62-.62.18-.16.41-.38a23.67,23.67,0,0,1,23.32-4.92l0,0,.48.21a1.84,1.84,0,0,0,1.47-3.37h0l-.25-.08A27.34,27.34,0,0,0,55,39.78"/><path class="cls-2" d="M48.7,34l-.05,0L31.08,51.58l-.33.36a18.75,18.75,0,0,0-4.82,10.49l0,.13s0,.43-.05.53v.14A18.89,18.89,0,0,0,30.77,77.4l.24.25.32.33.38.36,0,0,.35.32c.24.21.48.42.74.63a18.88,18.88,0,0,0,11.84,4.19h0A18.79,18.79,0,0,0,57.3,78.64l.48-.44.45-.45h0L74.6,61.37A1.83,1.83,0,0,0,72,58.78L55.23,75.55l-.4.36a15.16,15.16,0,0,1-19.95.35l-.47-.41,0,0-.46-.44-.31-.31-.27-.29a15,15,0,0,1-3.85-11.12c0-.19,0-.37,0-.56V63c0-.15,0-.31.06-.46l0-.15a15.12,15.12,0,0,1,3.82-8l.28-.3,1.55-1.55h0L51.21,36.65l0,0a1.84,1.84,0,0,0,0-2.6,1.84,1.84,0,0,0-2.55,0"/><path class="cls-2" d="M60.68,46.09l-.48.44-.52.52h0L43.37,63.36A1.83,1.83,0,0,0,46,66L62.74,49.17l.39-.36a15.16,15.16,0,0,1,19.95-.35l.47.41,0,0,.46.44.3.31.27.29a15,15,0,0,1,3.85,11.12c0,.19,0,.37,0,.56v.11c0,.15,0,.31-.06.46l0,.15a15.13,15.13,0,0,1-3.82,8l-.28.3-1.57,1.57h0L66.77,88.07l0,0a1.84,1.84,0,0,0,2.55,2.64l0,0L86.89,73.14l.33-.36A18.74,18.74,0,0,0,92,62.3l0-.21s0-.35,0-.44V61.5A18.89,18.89,0,0,0,87.2,47.33L87,47.07l-.32-.33-.38-.36,0,0-.31-.28,0,0c-.24-.21-.49-.42-.74-.63a18.83,18.83,0,0,0-24.47.69"/><path class="cls-2" d="M108.5,77.32q-1.84,0-1.84,1.33v.6a1.53,1.53,0,0,0,1.21,1.37l.77.28c.42.14.63.31.63.53v.48q0,.47-.75.47l-1.78,0v.91l1.82.08q1.72,0,1.71-1.43v-.48q0-1.09-1.34-1.48l-.67-.23q-.58-.18-.61-.49v-.59q0-.36.84-.36l1.59,0v-.9l-1.59-.09Zm6.48,0h-.46q-1.82,0-1.82,2.62v.78q0,2.61,1.82,2.61H115q1.82,0,1.82-2.61v-.78q0-2.62-1.82-2.62Zm0,.94q.77,0,.77,1.71v.74q0,1.71-.77,1.71h-.49q-.8,0-.8-1.71V80q0-1.71.8-1.71Zm4.57-.94v3.9q0,2.1,1.86,2.1h.13q1.9,0,1.9-2.1v-3.9h-1v3.9q0,1.14-.91,1.14h-.13q-.87,0-.87-1.14v-3.9Zm6.54,0v1h1.58v5h1v-5h1.47v-1Zm6.59,0v6h1V80.79h1.78v2.54h1v-6h-1v2.51h-1.77V77.32Zm14.67,6-1.62-5.54q-.14-.47-.52-.47h-.62q-.38,0-.52.47l-1.62,5.54h1l.44-1.37H146l.43,1.37ZM144.17,81l.72-2.43H145l.7,2.43Zm9.41-3.61-2.6-.06q-1.08,0-1.08,1.17v4.84h1v-2.5H153v-1h-2.08V78.49c0-.13,0-.2.1-.2h2.6v-.91Zm3.3,2.72V78.24h1.18q.76,0,.76.92t-.71.94Zm1.86,3.23h1.09L158.72,81q1-.06,1.08-1.79t-1.57-1.86H155.9v6h1V81h.78l1.08,2.3Zm3.84-6v6h1v-6ZM170,82.23a16.21,16.21,0,0,1-1.82.14q-1,0-1-2t1-2a15.17,15.17,0,0,1,1.83.13v-.91a14.73,14.73,0,0,0-1.85-.18q-1.92,0-1.92,3t1.92,3a13.61,13.61,0,0,0,1.84-.19v-.9Zm7.08,1.1-1.63-5.54q-.14-.47-.52-.47h-.61c-.25,0-.43.16-.52.47l-1.63,5.54h1l.44-1.37h2.07l.43,1.37ZM173.9,81l.72-2.43h.09l.7,2.43Zm6.75,2.32V78.51h.11L182.09,83a.46.46,0,0,0,.44.35h1q.36,0,.36-.32V77.32h-1v5h-.09l-1.37-4.73a.41.41,0,0,0-.41-.31h-1c-.24,0-.37.11-.37.34v5.67Zm9.77-6v6h1v-6Zm6.09,6q1.93,0,1.93-3t-1.93-3H194.4v6.05Zm-1.1-1v-4.1h1.1q.9,0,.9,2t-.9,2.06Zm9.5-5-2.6-.06q-1.08,0-1.09,1.17v3.68q0,1.16,1.09,1.16l2.59-.06v-.9H202.3c-.07,0-.1-.06-.1-.19V80.78h2.08v-.91H202.2V78.49c0-.13,0-.2.1-.2h2.6v-.91Zm3.52,5.93V78.51h.11L209.85,83a.46.46,0,0,0,.44.35h1q.36,0,.36-.32V77.32h-1v5h-.09l-1.38-4.73a.41.41,0,0,0-.41-.31h-1q-.36,0-.36.34v5.67Zm5.86-6v1h1.58v5h1v-5h1.47v-1Zm6.59,0v6h1v-6Zm3.63,0v1h1.58v5h1v-5h1.47v-1Zm6.09,0,1.63,4v2h1v-2l1.7-4h-1.06l-1.17,2.94h.09l-1.12-2.94Zm13.88.06-2.6-.06q-1.08,0-1.08,1.17v4.84h1v-2.5h2.08v-1h-2.08V78.49c0-.13,0-.2.1-.2h2.6v-.91Zm6,0-2.6-.06q-1.08,0-1.09,1.17v3.68q0,1.16,1.09,1.16l2.59-.06v-.9h-2.59c-.07,0-.1-.06-.1-.19V80.78h2.08v-.91h-2.08V78.49c0-.13,0-.2.1-.2h2.6v-.91Zm4.64,6q1.93,0,1.93-3t-1.93-3H253v6.05Zm-1.1-1v-4.1h1.1q.9,0,.9,2t-.9,2.06Zm9.49-5-2.6-.06q-1.08,0-1.09,1.17v3.68q0,1.16,1.09,1.16l2.58-.06v-.9h-2.58c-.07,0-.1-.06-.1-.19V80.78h2.08v-.91h-2.08V78.49c0-.13,0-.2.1-.2h2.6v-.91ZM267,80.1V78.24h1.17q.76,0,.76.92t-.71.94Zm1.86,3.23h1.09L268.82,81q1-.06,1.08-1.79t-1.57-1.86H266v6h1V81h.78l1.08,2.3Zm8.23,0-1.63-5.54q-.13-.47-.52-.47h-.62q-.38,0-.52.47l-1.63,5.54h1L273.6,82h2.07l.43,1.37ZM273.88,81l.72-2.43h.09l.7,2.43Zm4.79-3.68v1h1.58v5h1v-5h1.47v-1Zm6.59,0v6h1v-6Zm6,0h-.46q-1.82,0-1.82,2.62v.78q0,2.61,1.82,2.61h.46q1.82,0,1.82-2.61v-.78q0-2.62-1.82-2.62Zm0,.94q.77,0,.77,1.71v.74q0,1.71-.77,1.71h-.49q-.8,0-.8-1.71V80q0-1.71.8-1.71Zm5.59,5.07V78.51h.11L298.27,83a.46.46,0,0,0,.44.35h1c.24,0,.36-.11.36-.32V77.32h-1l0,5H299l-1.37-4.73a.41.41,0,0,0-.41-.31h-1c-.24,0-.36.11-.36.34v5.67Z"/><path class="cls-2" d="M110.27,63.71a9.39,9.39,0,0,0,5.26,1.54,8.79,8.79,0,0,0,6.36-2.54,8.1,8.1,0,0,0,2.62-6A7,7,0,0,0,123,52.34a29.76,29.76,0,0,0-5.63-5q-3.48-2.56-4.1-3.18A6.84,6.84,0,0,1,111.66,42a5,5,0,0,1-.43-2,3.8,3.8,0,0,1,1.22-2.85A4.33,4.33,0,0,1,115.57,36a5.25,5.25,0,0,1,2.76.76,12.4,12.4,0,0,1,3,3.11l2.59-1.94a14.64,14.64,0,0,0-4.12-4.09,8.21,8.21,0,0,0-4.17-1.12,8,8,0,0,0-3.92,1,7.12,7.12,0,0,0-2.79,2.68,7.33,7.33,0,0,0-1,3.76A7.84,7.84,0,0,0,109.65,45a26,26,0,0,0,4.92,4.34A16.42,16.42,0,0,1,120,53.67a5.43,5.43,0,0,1,1.07,3.12,5.16,5.16,0,0,1-.73,2.65,5.25,5.25,0,0,1-2.14,2,6.33,6.33,0,0,1-3,.75q-3.72,0-6.56-5.24L106,58.56a14,14,0,0,0,4.32,5.15ZM154.52,33.2l-15,31.69h3.55L148,54.44H161.7l5,10.45h3.38L155.29,33.2Zm5.77,18.21H149.44l5.47-11.5,5.39,11.5ZM186.77,65h3.16V49.44h8.48V46.32h-8.48V36.4h14.3V33.28H186.77V65Zm34.77,0h3.16V33.28h-3.16V65Zm22.37,0h3.16V50.23h4.12L260.28,65h3.89l-9.08-14.74a10,10,0,0,0,3.94-1,7.7,7.7,0,0,0,3.49-3,8.39,8.39,0,0,0,1.22-4.55A7.88,7.88,0,0,0,262,36.48a8.16,8.16,0,0,0-4.59-2.77,38.73,38.73,0,0,0-7.16-.43h-6.3V65Zm8.74-28.59a13.56,13.56,0,0,1,4.66.57,4.87,4.87,0,0,1,2.25,1.87,5.11,5.11,0,0,1,.87,2.88,5.42,5.42,0,0,1-.84,3,4.81,4.81,0,0,1-2.37,1.92,13.7,13.7,0,0,1-4.69.6l-5.45,0V36.38ZM282.31,65h18V61.83H285.47V49.39h9.15V46.32h-9.15V36.4h15V33.28H282.31V65Z"/></svg>